<mxfile host="app.diagrams.net" modified="2022-02-23T13:40:15.534Z" agent="5.0 (Windows NT 10.0; Win64; x64) AppleWebKit/537.36 (KHTML, like Gecko) Chrome/98.0.4758.102 Safari/537.36" etag="6NZ8RrqNagD7Rsw8YJih" version="16.6.1" type="github" pages="2">
  <diagram id="AUU_QLVfyT_pBIgsfGKq" name="structure">
    <mxGraphModel dx="1038" dy="547" grid="1" gridSize="10" guides="1" tooltips="1" connect="1" arrows="1" fold="1" page="1" pageScale="1" pageWidth="827" pageHeight="1169" math="0" shadow="0">
      <root>
        <mxCell id="0" />
        <mxCell id="1" parent="0" />
        <mxCell id="8fkyNQFJsTY0gqTaBjTg-18" value="" style="rounded=0;whiteSpace=wrap;html=1;" vertex="1" parent="1">
          <mxGeometry x="400" y="640" width="60" height="30" as="geometry" />
        </mxCell>
        <mxCell id="8fkyNQFJsTY0gqTaBjTg-1" value="" style="rounded=0;whiteSpace=wrap;html=1;" vertex="1" parent="1">
          <mxGeometry x="120" y="50" width="640" height="1960" as="geometry" />
        </mxCell>
        <mxCell id="8fkyNQFJsTY0gqTaBjTg-2" value="header" style="rounded=0;whiteSpace=wrap;html=1;" vertex="1" parent="1">
          <mxGeometry x="120" y="50" width="640" height="40" as="geometry" />
        </mxCell>
        <mxCell id="8fkyNQFJsTY0gqTaBjTg-3" value="jumbo" style="rounded=0;whiteSpace=wrap;html=1;" vertex="1" parent="1">
          <mxGeometry x="120" y="90" width="640" height="270" as="geometry" />
        </mxCell>
        <mxCell id="8fkyNQFJsTY0gqTaBjTg-4" value="text" style="rounded=0;whiteSpace=wrap;html=1;" vertex="1" parent="1">
          <mxGeometry x="560" y="170" width="140" height="140" as="geometry" />
        </mxCell>
        <mxCell id="8fkyNQFJsTY0gqTaBjTg-5" value="navbar" style="rounded=0;whiteSpace=wrap;html=1;" vertex="1" parent="1">
          <mxGeometry x="120" y="100" width="640" height="30" as="geometry" />
        </mxCell>
        <mxCell id="8fkyNQFJsTY0gqTaBjTg-6" value="full" style="rounded=0;whiteSpace=wrap;html=1;fillColor=#d5e8d4;strokeColor=#82b366;" vertex="1" parent="1">
          <mxGeometry x="570" y="270" width="50" height="30" as="geometry" />
        </mxCell>
        <mxCell id="8fkyNQFJsTY0gqTaBjTg-7" value="empty" style="rounded=0;whiteSpace=wrap;html=1;fillColor=#ffe6cc;strokeColor=#d79b00;" vertex="1" parent="1">
          <mxGeometry x="640" y="270" width="50" height="30" as="geometry" />
        </mxCell>
        <mxCell id="8fkyNQFJsTY0gqTaBjTg-8" value="" style="rounded=0;whiteSpace=wrap;html=1;" vertex="1" parent="1">
          <mxGeometry x="120" y="360" width="640" height="270" as="geometry" />
        </mxCell>
        <mxCell id="8fkyNQFJsTY0gqTaBjTg-9" value="text" style="rounded=0;whiteSpace=wrap;html=1;fillColor=#e1d5e7;strokeColor=#9673a6;" vertex="1" parent="1">
          <mxGeometry x="390" y="410" width="130" height="140" as="geometry" />
        </mxCell>
        <mxCell id="8fkyNQFJsTY0gqTaBjTg-10" value="text" style="rounded=0;whiteSpace=wrap;html=1;fillColor=#e1d5e7;strokeColor=#9673a6;" vertex="1" parent="1">
          <mxGeometry x="560" y="410" width="140" height="140" as="geometry" />
        </mxCell>
        <mxCell id="8fkyNQFJsTY0gqTaBjTg-11" value="text" style="rounded=0;whiteSpace=wrap;html=1;" vertex="1" parent="1">
          <mxGeometry x="230" y="410" width="140" height="140" as="geometry" />
        </mxCell>
        <mxCell id="8fkyNQFJsTY0gqTaBjTg-12" value="section logistics" style="text;html=1;strokeColor=none;fillColor=none;align=center;verticalAlign=middle;whiteSpace=wrap;rounded=0;" vertex="1" parent="1">
          <mxGeometry x="400" y="370" width="60" height="30" as="geometry" />
        </mxCell>
        <mxCell id="8fkyNQFJsTY0gqTaBjTg-13" value="full" style="rounded=0;whiteSpace=wrap;html=1;fillColor=#d5e8d4;strokeColor=#82b366;" vertex="1" parent="1">
          <mxGeometry x="275" y="510" width="50" height="30" as="geometry" />
        </mxCell>
        <mxCell id="8fkyNQFJsTY0gqTaBjTg-14" value="" style="rounded=0;whiteSpace=wrap;html=1;" vertex="1" parent="1">
          <mxGeometry x="120" y="900" width="640" height="290" as="geometry" />
        </mxCell>
        <mxCell id="8fkyNQFJsTY0gqTaBjTg-15" value="" style="rounded=0;whiteSpace=wrap;html=1;" vertex="1" parent="1">
          <mxGeometry x="120" y="630" width="640" height="270" as="geometry" />
        </mxCell>
        <mxCell id="8fkyNQFJsTY0gqTaBjTg-17" value="img" style="rounded=0;whiteSpace=wrap;html=1;" vertex="1" parent="1">
          <mxGeometry x="430" y="630" width="330" height="270" as="geometry" />
        </mxCell>
        <mxCell id="8fkyNQFJsTY0gqTaBjTg-16" value="section company" style="text;html=1;strokeColor=none;fillColor=none;align=center;verticalAlign=middle;whiteSpace=wrap;rounded=0;" vertex="1" parent="1">
          <mxGeometry x="450" y="640" width="60" height="30" as="geometry" />
        </mxCell>
        <mxCell id="8fkyNQFJsTY0gqTaBjTg-19" value="" style="rounded=1;whiteSpace=wrap;html=1;" vertex="1" parent="1">
          <mxGeometry x="210" y="640" width="190" height="230" as="geometry" />
        </mxCell>
        <mxCell id="8fkyNQFJsTY0gqTaBjTg-21" value="perc" style="rounded=0;whiteSpace=wrap;html=1;fillColor=#0050ef;fontColor=#ffffff;strokeColor=#001DBC;" vertex="1" parent="1">
          <mxGeometry x="245" y="710" width="120" height="40" as="geometry" />
        </mxCell>
        <mxCell id="8fkyNQFJsTY0gqTaBjTg-22" value="perc" style="rounded=0;whiteSpace=wrap;html=1;fillColor=#0050ef;fontColor=#ffffff;strokeColor=#001DBC;" vertex="1" parent="1">
          <mxGeometry x="245" y="760" width="120" height="40" as="geometry" />
        </mxCell>
        <mxCell id="8fkyNQFJsTY0gqTaBjTg-23" value="perc" style="rounded=0;whiteSpace=wrap;html=1;fillColor=#0050ef;fontColor=#ffffff;strokeColor=#001DBC;" vertex="1" parent="1">
          <mxGeometry x="245" y="820" width="120" height="40" as="geometry" />
        </mxCell>
        <mxCell id="8fkyNQFJsTY0gqTaBjTg-24" value="footer section company" style="rounded=0;whiteSpace=wrap;html=1;" vertex="1" parent="1">
          <mxGeometry x="120" y="900" width="640" height="60" as="geometry" />
        </mxCell>
        <mxCell id="8fkyNQFJsTY0gqTaBjTg-25" value="news" style="text;html=1;strokeColor=none;fillColor=none;align=center;verticalAlign=middle;whiteSpace=wrap;rounded=0;" vertex="1" parent="1">
          <mxGeometry x="400" y="970" width="60" height="30" as="geometry" />
        </mxCell>
        <mxCell id="8fkyNQFJsTY0gqTaBjTg-26" value="text" style="rounded=0;whiteSpace=wrap;html=1;" vertex="1" parent="1">
          <mxGeometry x="190" y="1005" width="530" height="45" as="geometry" />
        </mxCell>
        <mxCell id="8fkyNQFJsTY0gqTaBjTg-45" style="edgeStyle=orthogonalEdgeStyle;rounded=0;orthogonalLoop=1;jettySize=auto;html=1;" edge="1" parent="1" source="8fkyNQFJsTY0gqTaBjTg-27" target="8fkyNQFJsTY0gqTaBjTg-46">
          <mxGeometry relative="1" as="geometry">
            <mxPoint x="790" y="1000" as="targetPoint" />
          </mxGeometry>
        </mxCell>
        <mxCell id="8fkyNQFJsTY0gqTaBjTg-27" value="full" style="rounded=0;whiteSpace=wrap;html=1;fillColor=#d5e8d4;strokeColor=#82b366;" vertex="1" parent="1">
          <mxGeometry x="660" y="1012.5" width="50" height="30" as="geometry" />
        </mxCell>
        <mxCell id="8fkyNQFJsTY0gqTaBjTg-28" value="card" style="rounded=0;whiteSpace=wrap;html=1;" vertex="1" parent="1">
          <mxGeometry x="190" y="1060" width="120" height="110" as="geometry" />
        </mxCell>
        <mxCell id="8fkyNQFJsTY0gqTaBjTg-29" value="card" style="rounded=0;whiteSpace=wrap;html=1;" vertex="1" parent="1">
          <mxGeometry x="600" y="1060" width="120" height="110" as="geometry" />
        </mxCell>
        <mxCell id="8fkyNQFJsTY0gqTaBjTg-30" value="card" style="rounded=0;whiteSpace=wrap;html=1;" vertex="1" parent="1">
          <mxGeometry x="390" y="1059" width="120" height="110" as="geometry" />
        </mxCell>
        <mxCell id="8fkyNQFJsTY0gqTaBjTg-31" value="text&lt;span style=&quot;color: rgba(0 , 0 , 0 , 0) ; font-family: monospace ; font-size: 0px&quot;&gt;%3CmxGraphModel%3E%3Croot%3E%3CmxCell%20id%3D%220%22%2F%3E%3CmxCell%20id%3D%221%22%20parent%3D%220%22%2F%3E%3CmxCell%20id%3D%222%22%20value%3D%22%22%20style%3D%22rounded%3D0%3BwhiteSpace%3Dwrap%3Bhtml%3D1%3B%22%20vertex%3D%221%22%20parent%3D%221%22%3E%3CmxGeometry%20x%3D%22190%22%20y%3D%221060%22%20width%3D%22120%22%20height%3D%22110%22%20as%3D%22geometry%22%2F%3E%3C%2FmxCell%3E%3C%2Froot%3E%3C%2FmxGraphModel%3E&lt;/span&gt;" style="rounded=0;whiteSpace=wrap;html=1;" vertex="1" parent="1">
          <mxGeometry x="202.5" y="1130" width="95" height="30" as="geometry" />
        </mxCell>
        <mxCell id="8fkyNQFJsTY0gqTaBjTg-32" value="text&lt;span style=&quot;color: rgba(0 , 0 , 0 , 0) ; font-family: monospace ; font-size: 0px&quot;&gt;%3CmxGraphModel%3E%3Croot%3E%3CmxCell%20id%3D%220%22%2F%3E%3CmxCell%20id%3D%221%22%20parent%3D%220%22%2F%3E%3CmxCell%20id%3D%222%22%20value%3D%22%22%20style%3D%22rounded%3D0%3BwhiteSpace%3Dwrap%3Bhtml%3D1%3B%22%20vertex%3D%221%22%20parent%3D%221%22%3E%3CmxGeometry%20x%3D%22190%22%20y%3D%221060%22%20width%3D%22120%22%20height%3D%22110%22%20as%3D%22geometry%22%2F%3E%3C%2FmxCell%3E%3C%2Froot%3E%3C%2FmxGraphModel%3E&lt;/span&gt;" style="rounded=0;whiteSpace=wrap;html=1;" vertex="1" parent="1">
          <mxGeometry x="402.5" y="1130" width="95" height="30" as="geometry" />
        </mxCell>
        <mxCell id="8fkyNQFJsTY0gqTaBjTg-33" value="text&lt;span style=&quot;color: rgba(0 , 0 , 0 , 0) ; font-family: monospace ; font-size: 0px&quot;&gt;%3CmxGraphModel%3E%3Croot%3E%3CmxCell%20id%3D%220%22%2F%3E%3CmxCell%20id%3D%221%22%20parent%3D%220%22%2F%3E%3CmxCell%20id%3D%222%22%20value%3D%22%22%20style%3D%22rounded%3D0%3BwhiteSpace%3Dwrap%3Bhtml%3D1%3B%22%20vertex%3D%221%22%20parent%3D%221%22%3E%3CmxGeometry%20x%3D%22190%22%20y%3D%221060%22%20width%3D%22120%22%20height%3D%22110%22%20as%3D%22geometry%22%2F%3E%3C%2FmxCell%3E%3C%2Froot%3E%3C%2FmxGraphModel%3E&lt;/span&gt;" style="rounded=0;whiteSpace=wrap;html=1;" vertex="1" parent="1">
          <mxGeometry x="612.5" y="1130" width="95" height="30" as="geometry" />
        </mxCell>
        <mxCell id="8fkyNQFJsTY0gqTaBjTg-34" value="" style="rounded=0;whiteSpace=wrap;html=1;" vertex="1" parent="1">
          <mxGeometry x="120" y="1190" width="640" height="180" as="geometry" />
        </mxCell>
        <mxCell id="8fkyNQFJsTY0gqTaBjTg-35" value="section know" style="text;html=1;strokeColor=none;fillColor=none;align=center;verticalAlign=middle;whiteSpace=wrap;rounded=0;" vertex="1" parent="1">
          <mxGeometry x="400" y="1200" width="60" height="30" as="geometry" />
        </mxCell>
        <mxCell id="8fkyNQFJsTY0gqTaBjTg-36" value="text" style="rounded=0;whiteSpace=wrap;html=1;" vertex="1" parent="1">
          <mxGeometry x="190" y="1210" width="170" height="120" as="geometry" />
        </mxCell>
        <mxCell id="8fkyNQFJsTY0gqTaBjTg-37" value="form" style="rounded=0;whiteSpace=wrap;html=1;" vertex="1" parent="1">
          <mxGeometry x="520" y="1200" width="170" height="120" as="geometry" />
        </mxCell>
        <mxCell id="8fkyNQFJsTY0gqTaBjTg-38" value="full" style="rounded=0;whiteSpace=wrap;html=1;fillColor=#d5e8d4;strokeColor=#82b366;" vertex="1" parent="1">
          <mxGeometry x="530" y="1280" width="50" height="30" as="geometry" />
        </mxCell>
        <mxCell id="8fkyNQFJsTY0gqTaBjTg-39" value="" style="rounded=0;whiteSpace=wrap;html=1;" vertex="1" parent="1">
          <mxGeometry x="120" y="1370" width="640" height="300" as="geometry" />
        </mxCell>
        <mxCell id="8fkyNQFJsTY0gqTaBjTg-40" value="section help" style="text;html=1;strokeColor=none;fillColor=none;align=center;verticalAlign=middle;whiteSpace=wrap;rounded=0;" vertex="1" parent="1">
          <mxGeometry x="400" y="1380" width="60" height="30" as="geometry" />
        </mxCell>
        <mxCell id="8fkyNQFJsTY0gqTaBjTg-41" value="form" style="rounded=0;whiteSpace=wrap;html=1;" vertex="1" parent="1">
          <mxGeometry x="180" y="1420" width="280" height="200" as="geometry" />
        </mxCell>
        <mxCell id="8fkyNQFJsTY0gqTaBjTg-42" value="full" style="rounded=0;whiteSpace=wrap;html=1;fillColor=#d5e8d4;strokeColor=#82b366;" vertex="1" parent="1">
          <mxGeometry x="195" y="1580" width="50" height="30" as="geometry" />
        </mxCell>
        <mxCell id="8fkyNQFJsTY0gqTaBjTg-43" value="info" style="rounded=0;whiteSpace=wrap;html=1;" vertex="1" parent="1">
          <mxGeometry x="520" y="1420" width="170" height="200" as="geometry" />
        </mxCell>
        <mxCell id="8fkyNQFJsTY0gqTaBjTg-47" style="edgeStyle=orthogonalEdgeStyle;rounded=0;orthogonalLoop=1;jettySize=auto;html=1;" edge="1" parent="1" source="8fkyNQFJsTY0gqTaBjTg-44" target="8fkyNQFJsTY0gqTaBjTg-48">
          <mxGeometry relative="1" as="geometry">
            <mxPoint x="790" y="1600" as="targetPoint" />
          </mxGeometry>
        </mxCell>
        <mxCell id="8fkyNQFJsTY0gqTaBjTg-44" value="empty" style="rounded=0;whiteSpace=wrap;html=1;fillColor=#ffe6cc;strokeColor=#d79b00;" vertex="1" parent="1">
          <mxGeometry x="530" y="1580" width="50" height="30" as="geometry" />
        </mxCell>
        <mxCell id="8fkyNQFJsTY0gqTaBjTg-46" value="show more cards" style="text;html=1;strokeColor=none;fillColor=none;align=center;verticalAlign=middle;whiteSpace=wrap;rounded=0;" vertex="1" parent="1">
          <mxGeometry x="760" y="985" width="60" height="30" as="geometry" />
        </mxCell>
        <mxCell id="8fkyNQFJsTY0gqTaBjTg-48" value="show map" style="text;html=1;strokeColor=none;fillColor=none;align=center;verticalAlign=middle;whiteSpace=wrap;rounded=0;" vertex="1" parent="1">
          <mxGeometry x="760" y="1585" width="60" height="30" as="geometry" />
        </mxCell>
        <mxCell id="8fkyNQFJsTY0gqTaBjTg-49" value="" style="rounded=0;whiteSpace=wrap;html=1;" vertex="1" parent="1">
          <mxGeometry x="120" y="1670" width="640" height="230" as="geometry" />
        </mxCell>
        <mxCell id="8fkyNQFJsTY0gqTaBjTg-50" value="section links" style="text;html=1;strokeColor=none;fillColor=none;align=center;verticalAlign=middle;whiteSpace=wrap;rounded=0;" vertex="1" parent="1">
          <mxGeometry x="410" y="1680" width="60" height="30" as="geometry" />
        </mxCell>
        <mxCell id="8fkyNQFJsTY0gqTaBjTg-51" value="info" style="rounded=0;whiteSpace=wrap;html=1;" vertex="1" parent="1">
          <mxGeometry x="140" y="1685" width="120" height="200" as="geometry" />
        </mxCell>
        <mxCell id="8fkyNQFJsTY0gqTaBjTg-52" value="link" style="rounded=0;whiteSpace=wrap;html=1;fillColor=#e3c800;fontColor=#000000;strokeColor=#B09500;" vertex="1" parent="1">
          <mxGeometry x="620" y="1685" width="100" height="200" as="geometry" />
        </mxCell>
        <mxCell id="8fkyNQFJsTY0gqTaBjTg-53" value="link" style="rounded=0;whiteSpace=wrap;html=1;fillColor=#e3c800;fontColor=#000000;strokeColor=#B09500;" vertex="1" parent="1">
          <mxGeometry x="472.5" y="1685" width="107.5" height="200" as="geometry" />
        </mxCell>
        <mxCell id="8fkyNQFJsTY0gqTaBjTg-54" value="link" style="rounded=0;whiteSpace=wrap;html=1;fillColor=#e3c800;fontColor=#000000;strokeColor=#B09500;" vertex="1" parent="1">
          <mxGeometry x="287.5" y="1685" width="115" height="200" as="geometry" />
        </mxCell>
        <mxCell id="8fkyNQFJsTY0gqTaBjTg-55" value="footer" style="text;html=1;strokeColor=none;fillColor=none;align=center;verticalAlign=middle;whiteSpace=wrap;rounded=0;" vertex="1" parent="1">
          <mxGeometry x="400" y="1940" width="60" height="30" as="geometry" />
        </mxCell>
      </root>
    </mxGraphModel>
  </diagram>
  <diagram id="Bo4KeTY97bOimt_ycM-9" name="Page-2">
    <mxGraphModel dx="1038" dy="1716" grid="1" gridSize="10" guides="1" tooltips="1" connect="1" arrows="1" fold="1" page="1" pageScale="1" pageWidth="827" pageHeight="1169" math="0" shadow="0">
      <root>
        <mxCell id="L-8T6_zMzwuEpv2PxAl--0" />
        <mxCell id="L-8T6_zMzwuEpv2PxAl--1" parent="L-8T6_zMzwuEpv2PxAl--0" />
        <mxCell id="L-8T6_zMzwuEpv2PxAl--7" style="edgeStyle=orthogonalEdgeStyle;rounded=0;orthogonalLoop=1;jettySize=auto;html=1;entryX=0.5;entryY=0;entryDx=0;entryDy=0;exitX=0.5;exitY=1;exitDx=0;exitDy=0;" edge="1" parent="L-8T6_zMzwuEpv2PxAl--1" source="L-8T6_zMzwuEpv2PxAl--2" target="L-8T6_zMzwuEpv2PxAl--5">
          <mxGeometry relative="1" as="geometry">
            <mxPoint x="425" y="-960" as="targetPoint" />
            <mxPoint x="320" y="-985" as="sourcePoint" />
            <Array as="points">
              <mxPoint x="425" y="-985" />
              <mxPoint x="570" y="-985" />
            </Array>
          </mxGeometry>
        </mxCell>
        <mxCell id="L-8T6_zMzwuEpv2PxAl--9" style="edgeStyle=orthogonalEdgeStyle;rounded=0;orthogonalLoop=1;jettySize=auto;html=1;entryX=0.5;entryY=0;entryDx=0;entryDy=0;" edge="1" parent="L-8T6_zMzwuEpv2PxAl--1" source="L-8T6_zMzwuEpv2PxAl--2" target="L-8T6_zMzwuEpv2PxAl--3">
          <mxGeometry relative="1" as="geometry" />
        </mxCell>
        <mxCell id="L-8T6_zMzwuEpv2PxAl--10" style="edgeStyle=orthogonalEdgeStyle;rounded=0;orthogonalLoop=1;jettySize=auto;html=1;entryX=0.567;entryY=-0.047;entryDx=0;entryDy=0;entryPerimeter=0;" edge="1" parent="L-8T6_zMzwuEpv2PxAl--1" source="L-8T6_zMzwuEpv2PxAl--2" target="L-8T6_zMzwuEpv2PxAl--6">
          <mxGeometry relative="1" as="geometry" />
        </mxCell>
        <mxCell id="L-8T6_zMzwuEpv2PxAl--2" value="app" style="ellipse;whiteSpace=wrap;html=1;" vertex="1" parent="L-8T6_zMzwuEpv2PxAl--1">
          <mxGeometry x="330" y="-1130" width="190" height="120" as="geometry" />
        </mxCell>
        <mxCell id="L-8T6_zMzwuEpv2PxAl--3" value="header" style="rounded=1;whiteSpace=wrap;html=1;" vertex="1" parent="L-8T6_zMzwuEpv2PxAl--1">
          <mxGeometry x="70" y="-960" width="120" height="60" as="geometry" />
        </mxCell>
        <mxCell id="L-8T6_zMzwuEpv2PxAl--8" style="edgeStyle=orthogonalEdgeStyle;rounded=0;orthogonalLoop=1;jettySize=auto;html=1;entryX=0.5;entryY=1;entryDx=0;entryDy=0;" edge="1" parent="L-8T6_zMzwuEpv2PxAl--1" source="L-8T6_zMzwuEpv2PxAl--4" target="L-8T6_zMzwuEpv2PxAl--2">
          <mxGeometry relative="1" as="geometry" />
        </mxCell>
        <mxCell id="L-8T6_zMzwuEpv2PxAl--11" style="edgeStyle=orthogonalEdgeStyle;rounded=0;orthogonalLoop=1;jettySize=auto;html=1;" edge="1" parent="L-8T6_zMzwuEpv2PxAl--1" source="L-8T6_zMzwuEpv2PxAl--4">
          <mxGeometry relative="1" as="geometry">
            <mxPoint x="310" y="-850" as="targetPoint" />
          </mxGeometry>
        </mxCell>
        <mxCell id="L-8T6_zMzwuEpv2PxAl--4" value="jumbo" style="rounded=1;whiteSpace=wrap;html=1;" vertex="1" parent="L-8T6_zMzwuEpv2PxAl--1">
          <mxGeometry x="250" y="-960" width="120" height="60" as="geometry" />
        </mxCell>
        <mxCell id="L-8T6_zMzwuEpv2PxAl--13" style="edgeStyle=orthogonalEdgeStyle;rounded=0;orthogonalLoop=1;jettySize=auto;html=1;" edge="1" parent="L-8T6_zMzwuEpv2PxAl--1" source="L-8T6_zMzwuEpv2PxAl--5" target="L-8T6_zMzwuEpv2PxAl--14">
          <mxGeometry relative="1" as="geometry">
            <mxPoint x="570" y="-740" as="targetPoint" />
          </mxGeometry>
        </mxCell>
        <mxCell id="L-8T6_zMzwuEpv2PxAl--5" value="main" style="rounded=1;whiteSpace=wrap;html=1;" vertex="1" parent="L-8T6_zMzwuEpv2PxAl--1">
          <mxGeometry x="510" y="-960" width="120" height="60" as="geometry" />
        </mxCell>
        <mxCell id="L-8T6_zMzwuEpv2PxAl--6" value="footer" style="rounded=1;whiteSpace=wrap;html=1;" vertex="1" parent="L-8T6_zMzwuEpv2PxAl--1">
          <mxGeometry x="690" y="-960" width="120" height="60" as="geometry" />
        </mxCell>
        <mxCell id="L-8T6_zMzwuEpv2PxAl--12" value="nav jumbo" style="rounded=0;whiteSpace=wrap;html=1;fillColor=#ffff88;strokeColor=#36393d;" vertex="1" parent="L-8T6_zMzwuEpv2PxAl--1">
          <mxGeometry x="250" y="-850" width="120" height="60" as="geometry" />
        </mxCell>
        <mxCell id="L-8T6_zMzwuEpv2PxAl--14" value="" style="rounded=0;whiteSpace=wrap;html=1;" vertex="1" parent="L-8T6_zMzwuEpv2PxAl--1">
          <mxGeometry x="510" y="-730" width="120" height="270" as="geometry" />
        </mxCell>
        <mxCell id="L-8T6_zMzwuEpv2PxAl--25" style="edgeStyle=orthogonalEdgeStyle;rounded=0;orthogonalLoop=1;jettySize=auto;html=1;entryX=0;entryY=0.5;entryDx=0;entryDy=0;" edge="1" parent="L-8T6_zMzwuEpv2PxAl--1" source="L-8T6_zMzwuEpv2PxAl--16" target="L-8T6_zMzwuEpv2PxAl--27">
          <mxGeometry relative="1" as="geometry">
            <mxPoint x="660" y="-695" as="targetPoint" />
          </mxGeometry>
        </mxCell>
        <mxCell id="L-8T6_zMzwuEpv2PxAl--16" value="Section Logistics" style="rounded=0;whiteSpace=wrap;html=1;" vertex="1" parent="L-8T6_zMzwuEpv2PxAl--1">
          <mxGeometry x="520" y="-710" width="100" height="30" as="geometry" />
        </mxCell>
        <mxCell id="L-8T6_zMzwuEpv2PxAl--33" style="edgeStyle=orthogonalEdgeStyle;rounded=0;orthogonalLoop=1;jettySize=auto;html=1;entryX=0;entryY=0.5;entryDx=0;entryDy=0;" edge="1" parent="L-8T6_zMzwuEpv2PxAl--1" source="L-8T6_zMzwuEpv2PxAl--17" target="L-8T6_zMzwuEpv2PxAl--32">
          <mxGeometry relative="1" as="geometry" />
        </mxCell>
        <mxCell id="L-8T6_zMzwuEpv2PxAl--17" value="Section News" style="rounded=0;whiteSpace=wrap;html=1;" vertex="1" parent="L-8T6_zMzwuEpv2PxAl--1">
          <mxGeometry x="520" y="-630" width="100" height="30" as="geometry" />
        </mxCell>
        <mxCell id="L-8T6_zMzwuEpv2PxAl--22" style="edgeStyle=orthogonalEdgeStyle;rounded=0;orthogonalLoop=1;jettySize=auto;html=1;" edge="1" parent="L-8T6_zMzwuEpv2PxAl--1" source="L-8T6_zMzwuEpv2PxAl--18" target="L-8T6_zMzwuEpv2PxAl--23">
          <mxGeometry relative="1" as="geometry">
            <mxPoint x="660" y="-655" as="targetPoint" />
          </mxGeometry>
        </mxCell>
        <mxCell id="L-8T6_zMzwuEpv2PxAl--18" value="Section Company" style="rounded=0;whiteSpace=wrap;html=1;" vertex="1" parent="L-8T6_zMzwuEpv2PxAl--1">
          <mxGeometry x="520" y="-670" width="100" height="30" as="geometry" />
        </mxCell>
        <mxCell id="L-8T6_zMzwuEpv2PxAl--31" style="edgeStyle=orthogonalEdgeStyle;rounded=0;orthogonalLoop=1;jettySize=auto;html=1;entryX=0;entryY=0.5;entryDx=0;entryDy=0;" edge="1" parent="L-8T6_zMzwuEpv2PxAl--1" source="L-8T6_zMzwuEpv2PxAl--19" target="L-8T6_zMzwuEpv2PxAl--30">
          <mxGeometry relative="1" as="geometry" />
        </mxCell>
        <mxCell id="L-8T6_zMzwuEpv2PxAl--19" value="Section know" style="rounded=0;whiteSpace=wrap;html=1;" vertex="1" parent="L-8T6_zMzwuEpv2PxAl--1">
          <mxGeometry x="520" y="-590" width="100" height="30" as="geometry" />
        </mxCell>
        <mxCell id="L-8T6_zMzwuEpv2PxAl--37" style="edgeStyle=orthogonalEdgeStyle;rounded=0;orthogonalLoop=1;jettySize=auto;html=1;entryX=0;entryY=0.5;entryDx=0;entryDy=0;" edge="1" parent="L-8T6_zMzwuEpv2PxAl--1" source="L-8T6_zMzwuEpv2PxAl--20" target="L-8T6_zMzwuEpv2PxAl--36">
          <mxGeometry relative="1" as="geometry" />
        </mxCell>
        <mxCell id="L-8T6_zMzwuEpv2PxAl--20" value="Section help" style="rounded=0;whiteSpace=wrap;html=1;" vertex="1" parent="L-8T6_zMzwuEpv2PxAl--1">
          <mxGeometry x="520" y="-550" width="100" height="30" as="geometry" />
        </mxCell>
        <mxCell id="L-8T6_zMzwuEpv2PxAl--35" style="edgeStyle=orthogonalEdgeStyle;rounded=0;orthogonalLoop=1;jettySize=auto;html=1;entryX=0;entryY=0.25;entryDx=0;entryDy=0;" edge="1" parent="L-8T6_zMzwuEpv2PxAl--1" source="L-8T6_zMzwuEpv2PxAl--21" target="L-8T6_zMzwuEpv2PxAl--28">
          <mxGeometry relative="1" as="geometry" />
        </mxCell>
        <mxCell id="L-8T6_zMzwuEpv2PxAl--21" value="Section links" style="rounded=0;whiteSpace=wrap;html=1;" vertex="1" parent="L-8T6_zMzwuEpv2PxAl--1">
          <mxGeometry x="520" y="-510" width="100" height="30" as="geometry" />
        </mxCell>
        <mxCell id="L-8T6_zMzwuEpv2PxAl--23" value="company footer" style="rounded=1;whiteSpace=wrap;html=1;fillColor=#ffff88;strokeColor=#36393d;" vertex="1" parent="L-8T6_zMzwuEpv2PxAl--1">
          <mxGeometry x="670" y="-667.5" width="80" height="25" as="geometry" />
        </mxCell>
        <mxCell id="L-8T6_zMzwuEpv2PxAl--27" value="button full" style="rounded=1;whiteSpace=wrap;html=1;fillColor=#ffff88;strokeColor=#36393d;" vertex="1" parent="L-8T6_zMzwuEpv2PxAl--1">
          <mxGeometry x="670" y="-707.5" width="80" height="25" as="geometry" />
        </mxCell>
        <mxCell id="L-8T6_zMzwuEpv2PxAl--28" value="button full" style="rounded=1;whiteSpace=wrap;html=1;fillColor=#ffff88;strokeColor=#36393d;" vertex="1" parent="L-8T6_zMzwuEpv2PxAl--1">
          <mxGeometry x="670" y="-505" width="80" height="25" as="geometry" />
        </mxCell>
        <mxCell id="L-8T6_zMzwuEpv2PxAl--30" value="button full" style="rounded=1;whiteSpace=wrap;html=1;fillColor=#ffff88;strokeColor=#36393d;" vertex="1" parent="L-8T6_zMzwuEpv2PxAl--1">
          <mxGeometry x="670" y="-587.5" width="80" height="25" as="geometry" />
        </mxCell>
        <mxCell id="L-8T6_zMzwuEpv2PxAl--32" value="button full" style="rounded=1;whiteSpace=wrap;html=1;fillColor=#ffff88;strokeColor=#36393d;" vertex="1" parent="L-8T6_zMzwuEpv2PxAl--1">
          <mxGeometry x="670" y="-627.5" width="80" height="25" as="geometry" />
        </mxCell>
        <mxCell id="L-8T6_zMzwuEpv2PxAl--36" value="button full" style="rounded=1;whiteSpace=wrap;html=1;fillColor=#ffff88;strokeColor=#36393d;" vertex="1" parent="L-8T6_zMzwuEpv2PxAl--1">
          <mxGeometry x="670" y="-547.5" width="80" height="25" as="geometry" />
        </mxCell>
        <mxCell id="L-8T6_zMzwuEpv2PxAl--38" value="" style="rounded=0;whiteSpace=wrap;html=1;" vertex="1" parent="L-8T6_zMzwuEpv2PxAl--1">
          <mxGeometry x="40" y="-400" width="260" height="280" as="geometry" />
        </mxCell>
        <mxCell id="L-8T6_zMzwuEpv2PxAl--39" value="component to improve:" style="text;html=1;strokeColor=none;fillColor=none;align=center;verticalAlign=middle;whiteSpace=wrap;rounded=0;" vertex="1" parent="L-8T6_zMzwuEpv2PxAl--1">
          <mxGeometry x="140" y="-390" width="60" height="30" as="geometry" />
        </mxCell>
        <mxCell id="L-8T6_zMzwuEpv2PxAl--40" value="component for title - subtitle -&lt;br&gt;description" style="text;html=1;strokeColor=none;fillColor=none;align=center;verticalAlign=middle;whiteSpace=wrap;rounded=0;" vertex="1" parent="L-8T6_zMzwuEpv2PxAl--1">
          <mxGeometry x="50" y="-350" width="60" height="30" as="geometry" />
        </mxCell>
        <mxCell id="L-8T6_zMzwuEpv2PxAl--41" value="cards" style="text;html=1;strokeColor=none;fillColor=none;align=center;verticalAlign=middle;whiteSpace=wrap;rounded=0;" vertex="1" parent="L-8T6_zMzwuEpv2PxAl--1">
          <mxGeometry x="50" y="-290" width="60" height="30" as="geometry" />
        </mxCell>
        <mxCell id="L-8T6_zMzwuEpv2PxAl--42" value="linklist" style="text;html=1;strokeColor=none;fillColor=none;align=center;verticalAlign=middle;whiteSpace=wrap;rounded=0;" vertex="1" parent="L-8T6_zMzwuEpv2PxAl--1">
          <mxGeometry x="50" y="-240" width="60" height="30" as="geometry" />
        </mxCell>
      </root>
    </mxGraphModel>
  </diagram>
</mxfile>
